<svg width="327" height="307" viewBox="0 0 327 307" fill="none" xmlns="http://www.w3.org/2000/svg">
<g opacity="0.6">
<path d="M230.45 192.019C212.526 223.29 188.77 247.167 164.898 260.514C141.007 273.873 117.174 276.605 98.8936 265.975C80.6128 255.344 71.0461 233.19 70.5865 205.67C70.1272 178.174 78.7786 145.514 96.7034 114.243C114.628 82.9723 138.384 59.0958 162.255 45.7485C186.147 32.3896 209.979 29.6571 228.26 40.2877C246.541 50.9184 256.108 73.0729 256.567 100.593C257.027 128.089 248.375 160.749 230.45 192.019Z" stroke="#69FF12" stroke-width="2"/>
<path d="M230.449 114.243C248.374 145.514 257.025 178.174 256.566 205.669C256.106 233.189 246.54 255.344 228.259 265.974C209.978 276.605 186.146 273.872 162.254 260.513C138.383 247.166 114.626 223.29 96.7016 192.019C78.7767 160.748 70.1252 128.088 70.5845 100.592C71.0441 73.0724 80.6108 50.918 98.8916 40.2874C117.173 29.6568 141.005 32.3893 164.897 45.7482C188.768 59.0955 212.524 82.972 230.449 114.243Z" stroke="#69FF12" stroke-width="2"/>
<path d="M210.395 60.5033C274.245 93.2712 304.576 161.333 278.764 212.357C252.951 263.382 180.455 278.672 116.605 245.904C52.7547 213.136 22.4239 145.075 48.2361 94.0503C74.0482 43.0257 146.545 27.7353 210.395 60.5033Z" stroke="#69FF12" stroke-width="2"/>
<path d="M210.395 245.904C146.545 278.672 74.0489 263.382 48.2369 212.357C22.4249 161.332 52.7557 93.2707 116.606 60.5026C180.456 27.7345 252.952 43.0248 278.764 94.0495C304.576 145.074 274.245 213.136 210.395 245.904Z" stroke="#69FF12" stroke-width="2"/>
<path d="M200.819 145.249C208.289 180.648 210.769 213.573 208.761 238.176C207.757 250.484 205.634 260.651 202.488 267.99C199.33 275.359 195.245 279.656 190.44 280.685C185.635 281.713 180.168 279.462 174.307 274.023C168.47 268.607 162.424 260.189 156.536 249.357C144.767 227.703 133.737 196.609 126.266 161.21C118.796 125.812 116.316 92.8867 118.324 68.2837C119.328 55.9754 121.451 45.8089 124.597 38.4698C127.755 31.1001 131.84 26.8037 136.645 25.775C141.45 24.7464 146.917 26.9977 152.778 32.4364C158.615 37.8525 164.661 46.2702 170.549 57.1028C182.318 78.7562 193.348 109.851 200.819 145.249Z" stroke="#69FF12" stroke-width="2"/>
<path d="M200.842 161.177C193.372 196.575 182.342 227.67 170.572 249.323C164.684 260.156 158.639 268.573 152.802 273.99C146.941 279.428 141.473 281.68 136.669 280.651C131.864 279.622 127.779 275.326 124.62 267.956C121.475 260.617 119.352 250.451 118.347 238.142C116.339 213.539 118.82 180.614 126.29 145.216C133.76 109.817 144.79 78.7227 156.56 57.0693C162.448 46.2367 168.493 37.8189 174.33 32.4028C180.192 26.9642 185.659 24.7128 190.464 25.7415C195.268 26.7701 199.354 31.0666 202.512 38.4362C205.657 45.7753 207.781 55.9419 208.785 68.2501C210.793 92.8531 208.313 125.778 200.842 161.177Z" stroke="#69FF12" stroke-width="2"/>
</g>
</svg>
